<?xml version="1.0" standalone="no"?>
<!DOCTYPE svg PUBLIC "-//W3C//DTD SVG 20010904//EN"
 "http://www.w3.org/TR/2001/REC-SVG-20010904/DTD/svg10.dtd">
<svg version="1.0" xmlns="http://www.w3.org/2000/svg"
 width="512.000000pt" height="512.000000pt" viewBox="0 0 512.000000 512.000000"
 preserveAspectRatio="xMidYMid meet">
<metadata>
Created by potrace 1.11, written by Peter Selinger 2001-2013
</metadata>
<g transform="translate(0.000000,512.000000) scale(0.100000,-0.100000)"
fill="#000000" stroke="none">
<path d="M2240 3703 c-359 -52 -613 -356 -604 -725 9 -384 324 -696 695 -687
375 9 667 320 667 711 0 191 -70 364 -202 498 -93 96 -190 153 -313 185 -57
15 -194 25 -243 18z m220 -88 c382 -101 575 -534 401 -900 -105 -221 -323
-356 -566 -349 -211 6 -417 141 -513 335 -55 112 -70 179 -70 303 -1 87 4 116
28 187 53 158 129 260 257 345 59 39 83 49 168 75 75 22 220 24 295 4z"/>
<path d="M1145 2876 c-78 -28 -133 -81 -195 -185 -34 -59 -35 -64 -15 -84 23
-24 51 -9 76 40 29 56 93 129 130 148 43 23 93 19 126 -9 24 -21 28 -31 26
-70 -3 -76 -91 -202 -161 -232 -53 -22 -82 -53 -82 -86 0 -56 71 -55 125 2 16
17 34 30 40 30 22 0 46 -37 61 -91 19 -73 18 -92 -7 -120 -154 -175 -238 -357
-237 -517 0 -61 5 -93 17 -115 58 -103 178 -91 245 26 28 48 53 129 62 196 3
25 7 57 10 71 2 14 5 96 5 182 l0 157 27 28 c67 69 173 194 214 253 78 111 89
152 47 165 -26 9 -33 3 -67 -58 -55 -95 -229 -299 -236 -275 -2 7 -9 32 -15
56 -7 23 -26 58 -43 78 l-31 35 21 22 c12 12 34 49 51 81 54 108 32 219 -52
263 -39 20 -101 24 -142 9z m152 -888 c-3 -79 -9 -156 -12 -173 -34 -174 -102
-262 -158 -206 -27 27 -32 119 -11 200 23 86 155 321 180 321 4 0 4 -64 1
-142z"/>
<path d="M3179 2796 c-45 -31 -79 -97 -86 -170 -12 -116 43 -227 135 -273 45
-22 62 -25 115 -21 79 7 118 27 184 96 39 40 53 50 53 36 0 -26 34 -80 62 -98
32 -21 98 -26 135 -11 16 7 42 26 57 41 l27 29 -2 -75 c-3 -77 -10 -101 -38
-131 -31 -34 -112 -177 -151 -266 -47 -110 -69 -192 -75 -280 -6 -81 9 -133
47 -170 25 -24 37 -28 88 -28 51 0 63 4 91 30 35 33 74 111 85 171 3 22 9 48
12 59 3 11 6 127 8 258 2 272 -13 226 116 362 134 141 212 260 192 292 -24 38
-50 27 -84 -34 -39 -69 -83 -127 -162 -208 l-58 -60 5 60 c10 139 16 202 22
240 10 73 8 87 -12 101 -32 21 -45 3 -72 -96 -29 -110 -62 -180 -99 -209 -27
-21 -69 -27 -91 -13 -17 11 -40 73 -38 102 5 71 19 131 42 182 30 68 28 92 -9
96 -24 3 -30 -2 -49 -45 -126 -281 -182 -350 -292 -357 -40 -3 -108 21 -121
43 -4 5 8 20 26 32 107 73 152 160 128 248 -14 54 -50 83 -107 88 -39 4 -55 0
-84 -21z m106 -59 c27 -21 16 -98 -21 -144 -32 -39 -80 -71 -90 -60 -13 13 -6
124 10 155 16 31 52 62 71 62 6 0 19 -6 30 -13z m570 -769 c-3 -159 -6 -195
-26 -288 -21 -96 -72 -150 -124 -130 -23 9 -29 22 -39 81 -9 58 35 220 93 341
30 62 87 158 94 158 3 0 3 -73 2 -162z"/>
</g>
</svg>
